<?xml version="1.0" encoding="UTF-8"?>
<!DOCTYPE svg PUBLIC "-//W3C//DTD SVG 1.1//EN" "http://www.w3.org/Graphics/SVG/1.1/DTD/svg11.dtd">
<svg xmlns="http://www.w3.org/2000/svg" version="1.1" width="157px" height="30px" style="shape-rendering:geometricPrecision; text-rendering:geometricPrecision; image-rendering:optimizeQuality; fill-rule:evenodd; clip-rule:evenodd" xmlns:xlink="http://www.w3.org/1999/xlink">
<g><path style="opacity:0.821" fill="#09ad09" d="M 8.5,3.5 C 10.5,3.5 12.5,3.5 14.5,3.5C 14.3398,5.19919 14.5065,6.86586 15,8.5C 21.8669,6.77489 23.0335,8.60823 18.5,14C 15.9301,16.4593 12.9301,17.4593 9.5,17C 7.5,15.6667 5.5,14.3333 3.5,13C 2.59391,11.3005 2.26057,9.4672 2.5,7.5C 4.4672,7.26057 6.30054,7.59391 8,8.5C 8.49351,6.86586 8.66018,5.19919 8.5,3.5 Z"/></g>
<g><path style="opacity:0.102" fill="#003a26" d="M 25.5,4.5 C 26.8333,5.16667 26.8333,5.16667 25.5,4.5 Z"/></g>
<g><path style="opacity:0.892" fill="#fefefe" d="M 36.5,17.5 C 34.6481,18.0889 32.8148,18.7556 31,19.5C 30.7638,21.764 30.2638,23.9307 29.5,26C 28.2068,26.49 26.8734,26.6567 25.5,26.5C 26.5767,23.4742 26.5767,20.4742 25.5,17.5C 27.2768,15.0178 28.7768,12.3511 30,9.5C 32.6534,6.80593 35.8201,5.9726 39.5,7C 40.3366,8.01127 40.67,9.17793 40.5,10.5C 38.1933,10.0137 36.0266,10.0137 34,10.5C 33.2935,12.0806 32.4601,13.5806 31.5,15C 33.6526,15.0995 35.3192,15.9328 36.5,17.5 Z"/></g>
<g><path style="opacity:0.89" fill="#fefefe" d="M 89.5,6.5 C 92.5184,6.33537 95.5184,6.50204 98.5,7C 101.791,9.33199 102.291,12.1653 100,15.5C 96.9192,18.2931 93.4192,20.4597 89.5,22C 93.32,22.2348 96.9867,23.0682 100.5,24.5C 94.4151,25.1328 88.4151,25.1328 82.5,24.5C 86.6852,20.4849 91.1852,16.8182 96,13.5C 97.2542,9.88862 96.0876,8.38862 92.5,9C 89.7723,12.5011 87.9389,12.3344 87,8.5C 87.9947,7.93406 88.828,7.26739 89.5,6.5 Z"/></g>
<g><path style="opacity:0.87" fill="#fefefe" d="M 111.5,6.5 C 114.681,6.0016 117.347,6.83494 119.5,9C 117.272,10.081 114.939,10.581 112.5,10.5C 111.05,11.8498 110.383,13.5165 110.5,15.5C 111.978,15.238 113.311,15.5713 114.5,16.5C 113.176,17.9347 111.51,18.9347 109.5,19.5C 108.626,21.7466 108.292,24.0799 108.5,26.5C 106.571,26.7692 104.905,26.2692 103.5,25C 104.788,22.5335 104.788,20.0335 103.5,17.5C 105.651,15.2277 107.151,12.561 108,9.5C 109.145,8.36362 110.312,7.36362 111.5,6.5 Z"/></g>
<g><path style="opacity:0.878" fill="#fefefe" d="M 145.5,6.5 C 146.978,6.23798 148.311,6.57131 149.5,7.5C 148.248,9.73535 147.748,12.0687 148,14.5C 149.737,11.4665 151.903,10.9665 154.5,13C 152.981,14.3513 151.648,15.8513 150.5,17.5C 152.055,19.943 152.722,22.6097 152.5,25.5C 151.167,25.5 149.833,25.5 148.5,25.5C 147.167,17.5 145.833,17.5 144.5,25.5C 143.167,25.5 141.833,25.5 140.5,25.5C 141.701,19.0279 143.368,12.6946 145.5,6.5 Z"/></g>
<g><path style="opacity:0.894" fill="#fefefe" d="M 51.5,12.5 C 54.7861,13.2071 58.1194,13.5405 61.5,13.5C 61.5,14.5 61.5,15.5 61.5,16.5C 55.4279,16.2678 52.7612,19.2678 53.5,25.5C 52.1667,25.5 50.8333,25.5 49.5,25.5C 50.1667,21.1667 50.8333,16.8333 51.5,12.5 Z"/></g>
<g><path style="opacity:0.888" fill="#fefefe" d="M 64.5,12.5 C 70.6658,12.6315 76.8325,12.9648 83,13.5C 83.4008,17.3164 82.7342,20.983 81,24.5C 79.6439,25.3802 78.1439,25.7135 76.5,25.5C 77.8221,21.8835 78.6555,18.2169 79,14.5C 75.1826,16.9762 73.0159,20.4762 72.5,25C 70.9262,25.6987 69.5929,25.3654 68.5,24C 70.1083,21.0911 70.7749,18.2578 70.5,15.5C 67.2047,17.9347 65.3714,21.268 65,25.5C 63.9887,26.3366 62.8221,26.67 61.5,26.5C 61.8692,21.6909 62.8692,17.0243 64.5,12.5 Z"/></g>
<g><path style="opacity:0.878" fill="#fefefe" d="M 121.5,12.5 C 127.204,12.1464 129.037,14.813 127,20.5C 123.085,27.1134 118.585,27.7801 113.5,22.5C 114.417,17.6002 117.084,14.2668 121.5,12.5 Z M 121.5,15.5 C 124.058,18.5239 123.391,21.1906 119.5,23.5C 118.369,21.9255 118.202,20.2588 119,18.5C 120.045,17.6266 120.878,16.6266 121.5,15.5 Z"/></g>
<g><path style="opacity:0.881" fill="#fefefe" d="M 131.5,12.5 C 134.487,12.9978 137.487,13.4978 140.5,14C 140.957,14.414 141.291,14.914 141.5,15.5C 135.714,15.1239 132.88,18.1239 133,24.5C 131.506,25.7472 130.006,25.7472 128.5,24.5C 129.504,20.4705 130.504,16.4705 131.5,12.5 Z"/></g>
<g><path style="opacity:0.895" fill="#fefefe" d="M 36.5,17.5 C 39.6329,13.9222 43.6329,12.5889 48.5,13.5C 47.8333,17.5 47.1667,21.5 46.5,25.5C 43.1299,24.5745 39.7965,24.2411 36.5,24.5C 35.4249,22.1889 35.4249,19.8555 36.5,17.5 Z M 43.5,15.5 C 44.0954,18.3211 42.9287,20.6545 40,22.5C 39.991,19.65 41.1577,17.3167 43.5,15.5 Z"/></g>
<g><path style="opacity:0.831" fill="#fe6f08" d="M 7.5,18.5 C 15.229,16.8497 19.5623,19.8497 20.5,27.5C 14.8333,27.5 9.16667,27.5 3.5,27.5C 3.33982,25.8008 3.50649,24.1341 4,22.5C 5.37561,21.2949 6.54227,19.9616 7.5,18.5 Z"/></g>
</svg>
