<?xml version="1.0" encoding="UTF-8"?>
<!DOCTYPE svg PUBLIC "-//W3C//DTD SVG 1.1//EN" "http://www.w3.org/Graphics/SVG/1.1/DTD/svg11.dtd">
<svg xmlns="http://www.w3.org/2000/svg" version="1.1" width="163px" height="32px" style="shape-rendering:geometricPrecision; text-rendering:geometricPrecision; image-rendering:optimizeQuality; fill-rule:evenodd; clip-rule:evenodd" xmlns:xlink="http://www.w3.org/1999/xlink">
<g><path style="opacity:0.821" fill="#09ad09" d="M 8.5,3.5 C 10.5,3.5 12.5,3.5 14.5,3.5C 14.3398,5.19919 14.5065,6.86586 15,8.5C 21.8669,6.77489 23.0335,8.60823 18.5,14C 15.9301,16.4593 12.9301,17.4593 9.5,17C 7.5,15.6667 5.5,14.3333 3.5,13C 2.59391,11.3005 2.26057,9.4672 2.5,7.5C 4.4672,7.26057 6.30054,7.59391 8,8.5C 8.49351,6.86586 8.66018,5.19919 8.5,3.5 Z"/></g>
<g><path style="opacity:0.847" fill="#1c1c1c" d="M 41.5,16.5 C 39.6481,17.0889 37.8148,17.7556 36,18.5C 35.7638,20.764 35.2638,22.9307 34.5,25C 33.2068,25.49 31.8734,25.6567 30.5,25.5C 31.5767,22.4742 31.5767,19.4742 30.5,16.5C 32.2768,14.0178 33.7768,11.3511 35,8.5C 37.6534,5.80593 40.8201,4.9726 44.5,6C 45.3366,7.01127 45.67,8.17793 45.5,9.5C 43.1933,9.01368 41.0266,9.01368 39,9.5C 38.2935,11.0806 37.4601,12.5806 36.5,14C 38.6526,14.0995 40.3192,14.9328 41.5,16.5 Z"/></g>
<g><path style="opacity:0.855" fill="#1c1c1c" d="M 94.5,5.5 C 97.5184,5.33537 100.518,5.50204 103.5,6C 106.791,8.33199 107.291,11.1653 105,14.5C 101.919,17.2931 98.4192,19.4597 94.5,21C 98.32,21.2348 101.987,22.0682 105.5,23.5C 99.4151,24.1328 93.4151,24.1328 87.5,23.5C 91.6852,19.4849 96.1852,15.8182 101,12.5C 102.254,8.88862 101.088,7.38862 97.5,8C 94.7723,11.5011 92.9389,11.3344 92,7.5C 92.9947,6.93406 93.828,6.26739 94.5,5.5 Z"/></g>
<g><path style="opacity:0.829" fill="#1c1c1c" d="M 116.5,5.5 C 119.681,5.0016 122.347,5.83494 124.5,8C 122.272,9.08095 119.939,9.58095 117.5,9.5C 116.05,10.8498 115.383,12.5165 115.5,14.5C 116.978,14.238 118.311,14.5713 119.5,15.5C 118.176,16.9347 116.51,17.9347 114.5,18.5C 113.626,20.7466 113.292,23.0799 113.5,25.5C 111.571,25.7692 109.905,25.2692 108.5,24C 109.788,21.5335 109.788,19.0335 108.5,16.5C 110.651,14.2277 112.151,11.561 113,8.5C 114.145,7.36362 115.312,6.36362 116.5,5.5 Z"/></g>
<g><path style="opacity:0.824" fill="#1b1b1b" d="M 150.5,5.5 C 151.978,5.23798 153.311,5.57131 154.5,6.5C 153.248,8.73535 152.748,11.0687 153,13.5C 154.737,10.4665 156.903,9.96651 159.5,12C 157.981,13.3513 156.648,14.8513 155.5,16.5C 157.055,18.943 157.722,21.6097 157.5,24.5C 156.167,24.5 154.833,24.5 153.5,24.5C 152.167,16.5 150.833,16.5 149.5,24.5C 148.167,24.5 146.833,24.5 145.5,24.5C 146.701,18.0279 148.368,11.6946 150.5,5.5 Z"/></g>
<g><path style="opacity:0.845" fill="#1b1b1b" d="M 56.5,11.5 C 59.7861,12.2071 63.1194,12.5405 66.5,12.5C 66.5,13.5 66.5,14.5 66.5,15.5C 60.4279,15.2678 57.7612,18.2678 58.5,24.5C 57.1667,24.5 55.8333,24.5 54.5,24.5C 55.1667,20.1667 55.8333,15.8333 56.5,11.5 Z"/></g>
<g><path style="opacity:0.842" fill="#1c1c1c" d="M 69.5,11.5 C 75.6658,11.6315 81.8325,11.9648 88,12.5C 88.4008,16.3164 87.7342,19.983 86,23.5C 84.6439,24.3802 83.1439,24.7135 81.5,24.5C 82.8221,20.8835 83.6555,17.2169 84,13.5C 80.1826,15.9762 78.0159,19.4762 77.5,24C 75.9262,24.6987 74.5929,24.3654 73.5,23C 75.1083,20.0911 75.7749,17.2578 75.5,14.5C 72.2047,16.9347 70.3714,20.268 70,24.5C 68.9887,25.3366 67.8221,25.67 66.5,25.5C 66.8692,20.6909 67.8692,16.0243 69.5,11.5 Z"/></g>
<g><path style="opacity:0.832" fill="#1c1c1c" d="M 126.5,11.5 C 132.204,11.1464 134.037,13.813 132,19.5C 128.085,26.1134 123.585,26.7801 118.5,21.5C 119.417,16.6002 122.084,13.2668 126.5,11.5 Z M 126.5,14.5 C 129.058,17.5239 128.391,20.1906 124.5,22.5C 123.369,20.9255 123.202,19.2588 124,17.5C 125.045,16.6266 125.878,15.6266 126.5,14.5 Z"/></g>
<g><path style="opacity:0.834" fill="#1c1c1c" d="M 136.5,11.5 C 139.487,11.9978 142.487,12.4978 145.5,13C 145.957,13.414 146.291,13.914 146.5,14.5C 140.714,14.1239 137.88,17.1239 138,23.5C 136.506,24.7472 135.006,24.7472 133.5,23.5C 134.504,19.4705 135.504,15.4705 136.5,11.5 Z"/></g>
<g><path style="opacity:0.851" fill="#1b1b1b" d="M 41.5,16.5 C 44.6329,12.9222 48.6329,11.5889 53.5,12.5C 52.8333,16.5 52.1667,20.5 51.5,24.5C 48.1299,23.5745 44.7965,23.2411 41.5,23.5C 40.4249,21.1889 40.4249,18.8555 41.5,16.5 Z M 48.5,14.5 C 49.0954,17.3211 47.9287,19.6545 45,21.5C 44.991,18.65 46.1577,16.3167 48.5,14.5 Z"/></g>
<g><path style="opacity:0.831" fill="#fe6f08" d="M 7.5,18.5 C 15.229,16.8497 19.5623,19.8497 20.5,27.5C 14.8333,27.5 9.16667,27.5 3.5,27.5C 3.33982,25.8008 3.50649,24.1341 4,22.5C 5.37561,21.2949 6.54227,19.9616 7.5,18.5 Z"/></g>
</svg>
